<svg width="528" height="127" viewBox="0 0 528 127" fill="none" xmlns="http://www.w3.org/2000/svg">
<path d="M61.3523 0.00390625L61.1082 0H8.49975C6.50033 0 4.58372 0.798391 3.17553 2.21777C1.76732 3.63734 0.983699 5.56105 0.999754 7.56055V122.294L9.08936 127H131.089L141 116V22.126C141 17.9839 137.642 14.626 133.5 14.626H88.7263L64.8249 0.986328C63.7635 0.380585 62.5713 0.0436819 61.3523 0.00390625Z" fill="#F7C078"/>
<rect x="5.99951" y="23" width="126" height="98" rx="5" fill="#D9D9D9"/>
<rect x="11.9995" y="30" width="126" height="91" rx="5" fill="white"/>
<path d="M96.7814 35.5L96.5367 35.5028C95.3124 35.5315 94.0756 35.7741 92.9339 36.2104L67.2261 46.0337H22.4528C18.3107 46.0337 14.5082 48.4522 13.9595 51.4353L0.999633 121.565C0.451037 124.548 3.42754 126.966 7.56967 126.966L131.67 127C135.789 127 139.577 124.574 140.155 121.608L155.888 40.9452C156.169 39.5051 155.64 38.1196 154.42 37.0973C153.2 36.075 151.389 35.5 149.39 35.5H96.7814Z" fill="#FED8A0"/>
<path d="M47.6374 70.177C49.2692 68.0602 52.1552 67.3346 54.0828 68.5567L75.5013 82.1375C76.7481 82.9281 77.3372 84.3888 77.0466 85.9698C76.7558 87.5509 75.6294 89.0124 74.0917 89.8029L47.6784 103.383C45.3014 104.605 42.6821 103.88 41.8287 101.764C40.9754 99.6467 42.211 96.9396 44.588 95.7174L63.5466 85.9698L48.173 76.223C46.2455 75.0009 46.0056 72.2938 47.6374 70.177Z" fill="#38240A"/>
<path d="M106.933 95.1997C109.418 95.1997 111.069 97.1812 110.619 99.6255C110.17 102.07 107.791 104.051 105.305 104.051H81.3893C78.9041 104.051 77.2537 102.07 77.7032 99.6255C78.1527 97.1812 80.5318 95.1997 83.0171 95.1997H106.933Z" fill="#38240A"/>
<path d="M191.12 60.92C194 58.52 198.16 57.08 203.28 57.08C208 57.08 212 58.52 215.2 60.36C217.6 61.96 217.6 63.88 215.84 66.2C214.16 68.52 211.68 68.76 209.2 67.32C207.36 66.44 205.52 65.88 203.6 65.88C199.52 65.88 197.6 67.64 197.6 70.2C197.6 73.48 201.68 74.68 206.48 76.44C212.4 78.68 218.96 81.72 218.96 89.96C218.96 93.88 217.44 97.48 214.4 100.04C211.36 102.52 206.96 104.12 201.12 104.12C196.56 104.12 191.68 102.68 187.6 100.28C185.2 98.68 185.04 96.6 186.72 94.28C188.48 91.8 191.12 91.56 193.68 93.24C196.16 94.52 198.72 95.32 201.44 95.32C205.92 95.32 207.92 93.4 207.92 90.6C207.92 87.24 203.28 85.72 198.56 83.88C192.88 81.72 186.56 78.28 186.56 70.76C186.56 66.76 188.16 63.32 191.12 60.92Z" fill="#1D2021"/>
<path d="M266.329 98.2C266.329 101.4 264.489 103 261.289 103C258.409 103 256.569 101.56 256.169 98.68L255.849 96.52H255.529C251.689 101.08 247.449 104.12 241.289 104.12C231.609 104.12 227.449 97.4 227.449 86.12V64.04C227.449 60.12 229.369 58.2 233.289 58.2C237.209 58.2 239.129 60.12 239.129 64.04V84.68C239.129 91.64 241.129 94.04 245.529 94.04C249.129 94.04 251.529 92.44 254.569 88.44V63.4C254.569 60.28 256.649 58.2 259.769 58.2H263.609C265.289 58.2 266.329 59.24 266.329 60.92V98.2Z" fill="#1D2021"/>
<path d="M278.867 63C278.867 59.8 280.787 58.2 283.987 58.2C286.787 58.2 288.707 59.64 289.267 62.36L289.347 62.84H289.587C293.347 59.64 297.907 57.08 302.787 57.08C313.747 57.08 320.387 66.12 320.387 79.88C320.387 95.24 311.187 104.12 301.347 104.12C297.427 104.12 293.587 102.36 290.227 99.24L290.627 106.52V115C290.627 118.12 288.547 120.2 285.427 120.2H281.507C279.907 120.2 278.867 119.16 278.867 117.56V63ZM305.507 90.92C307.267 88.52 308.307 84.92 308.307 80.04C308.307 71.48 305.587 66.76 299.427 66.76C296.387 66.76 293.667 68.28 290.627 71.32V91.08C293.507 93.56 296.307 94.44 298.787 94.44C301.427 94.44 303.827 93.24 305.507 90.92Z" fill="#1D2021"/>
<path d="M338.991 83.96C339.951 91.24 344.751 95 351.471 95C353.631 95 355.631 94.6 357.551 93.88C360.031 92.68 362.191 93.32 363.551 95.72C364.751 97.96 364.351 99.8 362.191 101.08C358.431 103 354.111 104.12 349.871 104.12C337.311 104.12 327.551 95.4 327.551 80.6C327.551 66.12 337.791 57.08 348.431 57.08C360.751 57.08 367.151 66.04 367.151 78.52C367.151 79.72 367.071 80.84 366.991 81.88C366.751 83 365.631 83.96 364.111 83.96H338.991ZM342.271 68.68C340.511 70.36 339.231 72.76 338.751 76.04H357.071C357.071 70.04 354.431 66.2 348.591 66.2C346.271 66.2 344.031 67 342.271 68.68Z" fill="#1D2021"/>
<path d="M376.836 63C376.836 59.8 378.596 58.2 381.796 58.2C384.756 58.2 386.596 59.64 386.916 62.6L387.316 66.12H387.556C390.836 60.28 395.636 57.08 400.276 57.08C400.676 57.08 401.076 57.08 401.476 57.08C404.276 57.8 405.076 60.04 404.516 62.92C403.956 65.96 402.036 67.96 398.916 67.48C398.916 67.48 398.836 67.48 398.756 67.48C395.316 67.48 391.156 69.8 388.596 76.28V97.8C388.596 100.92 386.516 103 383.396 103H379.476C377.876 103 376.836 101.96 376.836 100.36V63Z" fill="#1D2021"/>
<path d="M453.119 97.8C453.119 100.92 451.039 103 447.919 103H443.999C442.399 103 441.359 101.96 441.359 100.36V64.04C441.359 60.12 443.359 58.2 447.279 58.2C451.199 58.2 453.119 60.12 453.119 64.04V97.8ZM452.239 39.88C453.439 41 454.159 42.6 454.159 44.52C454.159 46.44 453.439 48.04 452.239 49.16C451.039 50.28 449.279 50.92 447.279 50.92C443.199 50.92 440.479 48.44 440.479 44.52C440.479 40.68 443.199 38.12 447.279 38.12C449.279 38.12 451.039 38.76 452.239 39.88ZM425.359 97.8C425.359 100.92 423.279 103 420.159 103H416.319C414.719 103 413.679 101.96 413.679 100.36V67.48H411.919C409.039 67.48 407.599 65.88 407.599 63C407.599 60.28 408.959 58.68 411.679 58.44L413.679 58.28V54.6C413.679 45.32 417.999 38.04 429.199 38.04C431.039 38.04 432.799 38.28 434.319 38.52C436.959 39.32 437.359 41 436.719 43.64C435.999 46.68 433.999 48.04 430.959 47.32C430.879 47.32 430.879 47.32 430.799 47.32C427.359 47.32 425.359 49.4 425.359 54.36V58.2H429.279C432.399 58.2 433.919 59.72 433.919 62.84C433.919 65.96 432.399 67.48 429.279 67.48H425.359V97.8Z" fill="#1D2021"/>
<path d="M477.424 90.92C477.424 93.64 478.624 94.52 479.744 94.52C479.824 94.52 479.824 94.52 479.904 94.52C480.864 94.44 481.584 95.8 481.744 96.76C482.144 99.24 481.984 103.32 479.584 103.96C478.704 104.04 477.824 104.12 476.784 104.12C468.544 104.12 465.664 98.76 465.664 90.44V44.36C465.664 41.24 467.744 39.16 470.864 39.16H474.704C476.384 39.16 477.424 40.2 477.424 41.88V90.92Z" fill="#1D2021"/>
<path d="M499.538 83.96C500.498 91.24 505.298 95 512.018 95C514.178 95 516.178 94.6 518.098 93.88C520.578 92.68 522.738 93.32 524.098 95.72C525.298 97.96 524.898 99.8 522.738 101.08C518.978 103 514.658 104.12 510.418 104.12C497.858 104.12 488.098 95.4 488.098 80.6C488.098 66.12 498.338 57.08 508.978 57.08C521.298 57.08 527.698 66.04 527.698 78.52C527.698 79.72 527.618 80.84 527.538 81.88C527.298 83 526.178 83.96 524.658 83.96H499.538ZM502.818 68.68C501.058 70.36 499.778 72.76 499.298 76.04H517.618C517.618 70.04 514.978 66.2 509.138 66.2C506.818 66.2 504.578 67 502.818 68.68Z" fill="#1D2021"/>
</svg>
