<svg width="480" height="127" viewBox="0 0 480 127" fill="none" xmlns="http://www.w3.org/2000/svg">
<path d="M61.3523 0.00390625L61.1082 0H8.49975C6.50033 0 4.58372 0.798391 3.17553 2.21777C1.76732 3.63734 0.983699 5.56105 0.999754 7.56055V122.294L9.08936 127H131.089L141 116V22.126C141 17.9839 137.642 14.626 133.5 14.626H88.7263L64.8249 0.986328C63.7635 0.380585 62.5713 0.0436819 61.3523 0.00390625Z" fill="#F7C078"/>
<rect x="5.99951" y="23" width="126" height="98" rx="5" fill="#D9D9D9"/>
<rect x="11.9995" y="30" width="126" height="91" rx="5" fill="white"/>
<path d="M96.7814 35.5L96.5367 35.5028C95.3124 35.5315 94.0756 35.7741 92.9339 36.2104L67.2261 46.0337H22.4528C18.3107 46.0337 14.5082 48.4522 13.9595 51.4353L0.999633 121.565C0.451037 124.548 3.42754 126.966 7.56967 126.966L131.67 127C135.789 127 139.577 124.574 140.155 121.608L155.888 40.9452C156.169 39.5051 155.64 38.1196 154.42 37.0973C153.2 36.075 151.389 35.5 149.39 35.5H96.7814Z" fill="#FED8A0"/>
<path d="M47.6374 70.177C49.2692 68.0602 52.1552 67.3346 54.0828 68.5567L75.5013 82.1375C76.7481 82.9281 77.3372 84.3888 77.0466 85.9698C76.7558 87.5509 75.6294 89.0124 74.0917 89.8029L47.6784 103.383C45.3014 104.605 42.6821 103.88 41.8287 101.764C40.9754 99.6467 42.211 96.9396 44.588 95.7174L63.5466 85.9698L48.173 76.223C46.2455 75.0009 46.0056 72.2938 47.6374 70.177Z" fill="#38240A"/>
<path d="M106.933 95.1997C109.418 95.1997 111.069 97.1812 110.619 99.6255C110.17 102.07 107.791 104.051 105.305 104.051H81.3893C78.9041 104.051 77.2537 102.07 77.7032 99.6255C78.1527 97.1812 80.5318 95.1997 83.0171 95.1997H106.933Z" fill="#38240A"/>
<path d="M190.752 67.232C193.2 65.192 196.736 63.968 201.088 63.968C205.1 63.968 208.5 65.192 211.22 66.756C213.26 68.116 213.26 69.748 211.764 71.72C210.336 73.692 208.228 73.896 206.12 72.672C204.556 71.924 202.992 71.448 201.36 71.448C197.892 71.448 196.26 72.944 196.26 75.12C196.26 77.908 199.728 78.928 203.808 80.424C208.84 82.328 214.416 84.912 214.416 91.916C214.416 95.248 213.124 98.308 210.54 100.484C207.956 102.592 204.216 103.952 199.252 103.952C195.376 103.952 191.228 102.728 187.76 100.688C185.72 99.328 185.584 97.56 187.012 95.588C188.508 93.48 190.752 93.276 192.928 94.704C195.036 95.792 197.212 96.472 199.524 96.472C203.332 96.472 205.032 94.84 205.032 92.46C205.032 89.604 201.088 88.312 197.076 86.748C192.248 84.912 186.876 81.988 186.876 75.596C186.876 72.196 188.236 69.272 190.752 67.232ZM254.679 83.96V98.92C254.679 101.64 253.115 103 250.395 103C247.947 103 246.383 101.776 246.043 99.328L245.771 97.492H245.499C242.235 101.368 238.631 103.952 233.395 103.952C225.167 103.952 221.631 98.24 221.631 88.652V69.884C221.631 66.552 223.263 64.92 226.595 64.92C229.927 64.92 231.559 66.552 231.559 69.884V87.428C231.559 93.344 233.259 95.384 236.999 95.384C240.059 95.384 242.099 94.024 244.683 90.624V69.34C244.683 66.688 246.451 64.92 249.103 64.92H249.647H252.367C253.795 64.92 254.679 65.804 254.679 67.232V83.96ZM265.336 91.304V69C265.336 66.28 266.968 64.92 269.688 64.92C272.068 64.92 273.7 66.144 274.176 68.456L274.244 68.864H274.448C277.644 66.144 281.52 63.968 285.668 63.968C294.984 63.968 300.628 71.652 300.628 83.348C300.628 96.404 292.808 103.952 284.444 103.952C281.112 103.952 277.848 102.456 274.992 99.804L275.332 105.992V113.2C275.332 115.852 273.564 117.62 270.912 117.62H270.3H267.58C266.22 117.62 265.336 116.736 265.336 115.376V91.304ZM287.98 92.732C289.476 90.692 290.36 87.632 290.36 83.484C290.36 76.208 288.048 72.196 282.812 72.196C280.228 72.196 277.916 73.488 275.332 76.072V84.504V92.868C277.78 94.976 280.16 95.724 282.268 95.724C284.512 95.724 286.552 94.704 287.98 92.732ZM333.986 86.816H328.138H316.442C317.258 93.004 321.338 96.2 327.05 96.2C328.886 96.2 330.586 95.86 332.218 95.248C334.326 94.228 336.162 94.772 337.318 96.812C338.338 98.716 337.998 100.28 336.162 101.368C332.966 103 329.294 103.952 325.69 103.952C315.014 103.952 306.718 96.54 306.718 83.96C306.718 71.652 315.422 63.968 324.466 63.968C334.938 63.968 340.378 71.584 340.378 82.192C340.378 83.212 340.31 84.164 340.242 85.048C340.038 86 339.086 86.816 337.794 86.816H333.986ZM319.23 73.828C317.734 75.256 316.646 77.296 316.238 80.084H323.99H331.81C331.81 74.984 329.566 71.72 324.602 71.72C322.63 71.72 320.726 72.4 319.23 73.828ZM348.61 83.96V69C348.61 66.28 350.106 64.92 352.826 64.92C355.342 64.92 356.906 66.144 357.178 68.66L357.518 71.652H357.722C360.51 66.688 364.59 63.968 368.534 63.968C368.874 63.968 369.214 63.968 369.554 63.968C371.934 64.58 372.614 66.484 372.138 68.932C371.662 71.516 370.03 73.216 367.378 72.808C367.378 72.808 367.31 72.808 367.242 72.808C364.318 72.808 360.782 74.78 358.606 80.288V98.58C358.606 101.232 356.838 103 354.186 103H353.574H350.854C349.494 103 348.61 102.116 348.61 100.756V83.96ZM413.451 83.96V98.58C413.451 101.232 411.683 103 409.031 103H408.419H405.699C404.339 103 403.455 102.116 403.455 100.756V69.884C403.455 66.552 405.155 64.92 408.487 64.92C411.819 64.92 413.451 66.552 413.451 69.884V83.96ZM412.703 49.348C413.723 50.3 414.335 51.66 414.335 53.292C414.335 54.924 413.723 56.284 412.703 57.236C411.683 58.188 410.187 58.732 408.487 58.732C405.019 58.732 402.707 56.624 402.707 53.292C402.707 50.028 405.019 47.852 408.487 47.852C410.187 47.852 411.683 48.396 412.703 49.348ZM389.855 87.904V98.58C389.855 101.232 388.087 103 385.435 103H384.891H382.171C380.811 103 379.927 102.116 379.927 100.756V72.808H378.431C375.983 72.808 374.759 71.448 374.759 69C374.759 66.688 375.915 65.328 378.227 65.124L379.927 64.988V61.86C379.927 53.972 383.599 47.784 393.119 47.784C394.683 47.784 396.179 47.988 397.471 48.192C399.715 48.872 400.055 50.3 399.511 52.544C398.899 55.128 397.199 56.284 394.615 55.672C394.547 55.672 394.547 55.672 394.479 55.672C391.555 55.672 389.855 57.44 389.855 61.656V64.92H393.187C395.839 64.92 397.131 66.212 397.131 68.864C397.131 71.516 395.839 72.808 393.187 72.808H389.855V87.904ZM434.11 70.768V92.732C434.11 95.044 435.13 95.792 436.082 95.792C436.15 95.792 436.15 95.792 436.218 95.792C437.034 95.724 437.646 96.88 437.782 97.696C438.122 99.804 437.986 103.272 435.946 103.816C435.198 103.884 434.45 103.952 433.566 103.952C426.562 103.952 424.114 99.396 424.114 92.324V53.156C424.114 50.504 425.882 48.736 428.534 48.736H429.078H431.798C433.226 48.736 434.11 49.62 434.11 51.048V70.768ZM470.451 86.816H464.603H452.907C453.723 93.004 457.803 96.2 463.515 96.2C465.351 96.2 467.051 95.86 468.683 95.248C470.791 94.228 472.627 94.772 473.783 96.812C474.803 98.716 474.463 100.28 472.627 101.368C469.431 103 465.759 103.952 462.155 103.952C451.479 103.952 443.183 96.54 443.183 83.96C443.183 71.652 451.887 63.968 460.931 63.968C471.403 63.968 476.843 71.584 476.843 82.192C476.843 83.212 476.775 84.164 476.707 85.048C476.503 86 475.551 86.816 474.259 86.816H470.451ZM455.695 73.828C454.199 75.256 453.111 77.296 452.703 80.084H460.455H468.275C468.275 74.984 466.031 71.72 461.067 71.72C459.095 71.72 457.191 72.4 455.695 73.828Z" fill="#FFFEFC"/>
</svg>
